<?xml version="1.0" standalone="no"?>
<!DOCTYPE svg PUBLIC "-//W3C//DTD SVG 20010904//EN"
 "http://www.w3.org/TR/2001/REC-SVG-20010904/DTD/svg10.dtd">
<svg version="1.0" xmlns="http://www.w3.org/2000/svg"
 width="512.000000pt" height="512.000000pt" viewBox="0 0 512.000000 512.000000"
 preserveAspectRatio="xMidYMid meet">
<metadata>
Created by potrace 1.11, written by Peter Selinger 2001-2013
</metadata>
<g transform="translate(0.000000,512.000000) scale(0.100000,-0.100000)"
fill="#000000" stroke="none">
<path d="M1810 4970 l0 -150 150 0 150 0 0 150 0 150 -150 0 -150 0 0 -150z"/>
<path d="M3010 4970 l0 -150 150 0 150 0 0 150 0 150 -150 0 -150 0 0 -150z"/>
<path d="M2410 4370 l0 -150 150 0 150 0 0 150 0 150 -150 0 -150 0 0 -150z"/>
<path d="M1510 3770 l0 -150 150 0 150 0 0 150 0 150 -150 0 -150 0 0 -150z"/>
<path d="M3310 3770 l0 -150 150 0 150 0 0 150 0 150 -150 0 -150 0 0 -150z"/>
<path d="M2422 3493 c-70 -71 -160 -166 -198 -213 -72 -86 -228 -290 -244
-319 -8 -14 -10 -14 -27 0 -58 52 -342 227 -553 342 -30 16 -61 34 -68 40 -15
12 -11 17 -64 -73 -62 -105 -141 -270 -178 -370 -34 -89 -78 -229 -85 -268 -2
-12 -6 -30 -9 -40 -6 -18 -10 -43 -26 -137 -11 -65 -18 -113 -19 -131 -1 -7
-32 -2 -88 13 -92 24 -99 26 -203 42 -36 6 -81 13 -100 17 -19 3 -153 8 -298
11 l-263 5 5 -108 c9 -171 13 -202 62 -434 10 -48 82 -266 113 -338 72 -173
206 -393 335 -552 72 -89 247 -264 326 -325 158 -124 389 -263 555 -332 l50
-21 -722 -1 -723 -1 0 -150 0 -150 2560 0 2560 0 0 150 0 150 -722 1 c-530 0
-716 3 -698 11 94 41 276 132 278 139 2 5 8 9 14 9 6 0 55 29 108 64 338 225
613 537 785 890 89 183 166 405 189 546 27 164 37 241 42 339 l5 114 -268 -6
c-147 -3 -279 -8 -293 -10 -14 -3 -59 -11 -100 -17 -41 -7 -122 -23 -180 -37
-58 -14 -109 -26 -114 -27 -5 0 -11 15 -13 34 -16 162 -73 389 -141 565 -45
118 -175 378 -218 433 -1 2 -42 -19 -89 -47 -48 -28 -88 -51 -90 -51 -10 0
-297 -174 -374 -227 -51 -36 -97 -61 -101 -56 -4 4 -49 64 -100 133 -160 214
-443 520 -482 520 -5 0 -66 -57 -136 -127z"/>
</g>
</svg>
